<?xml version="1.0"?>
<svg xmlns="http://www.w3.org/2000/svg" xmlns:xlink="http://www.w3.org/1999/xlink" xmlns:svgjs="http://svgjs.com/svgjs" version="1.1" width="512" height="512" x="0" y="0" viewBox="0 0 24 24" style="enable-background:new 0 0 512 512" xml:space="preserve" class=""><g><path xmlns="http://www.w3.org/2000/svg" d="m14.713 24c-.745 0-1.39-.494-1.532-1.176l-.588-3.326c-.046-.221-.302-.398-.593-.398s-.547.178-.596.413l-.583 3.296c-.145.697-.789 1.191-1.534 1.191-.796 0-1.463-.556-1.551-1.294l-.228-1.913c-.015-.126-.198-1.028-.667-3.184-.227-1.039-.341-2.103-.341-3.164 0-1.348 1.097-2.445 2.446-2.445.453 0 .897.123 1.286.356 1.091.654 2.445.654 3.536 0 .389-.233.834-.356 1.286-.356 1.349 0 2.446 1.097 2.446 2.445 0 1.062-.114 2.126-.34 3.165-.576 2.645-.659 3.105-.667 3.182l-.228 1.915c-.088.737-.755 1.293-1.552 1.293zm-2.713-5.9c.767 0 1.43.509 1.575 1.21l.588 3.325c.042.201.28.365.55.365.286 0 .531-.181.558-.411 0-.001 0-.001 0-.001l.228-1.914c.01-.081.035-.298.683-3.276.21-.969.317-1.962.317-2.951 0-.798-.648-1.446-1.446-1.446-.271 0-.538.074-.771.214-1.409.846-3.158.845-4.565 0-.233-.141-.5-.215-.771-.215-.798 0-1.446.648-1.446 1.445 0 .989.107 1.982.317 2.951.429 1.971.659 3.074.683 3.277l.228 1.914c.028.232.273.413.559.413.27 0 .508-.164.553-.381l.583-3.295c.147-.716.81-1.224 1.577-1.224z" fill="#fff4f4" data-original="#000000" style="" class=""/><path xmlns="http://www.w3.org/2000/svg" d="m4.5 18c-.148 0-.293-.065-.391-.188l-4-5c-.114-.143-.141-.336-.071-.505l5-12c.107-.256.399-.371.654-.27.255.106.375.399.269.654l-4.885 11.728 1.707 2.134-.747-1.867c-.053-.133-.047-.281.017-.409l6-12c.123-.247.425-.348.671-.224.247.124.347.424.224.671l-5.9 11.798 1.917 4.792c.092.229.001.493-.212.617-.08.047-.167.069-.253.069z" fill="#fff4f4" data-original="#000000" style="" class=""/><path xmlns="http://www.w3.org/2000/svg" d="m19.5 18c-.086 0-.172-.022-.251-.068-.214-.124-.304-.388-.212-.617l1.917-4.792-5.901-11.799c-.124-.247-.023-.547.224-.671s.547-.022.671.224l6 12c.064.128.07.276.017.409l-.747 1.867 1.707-2.134-4.886-11.727c-.106-.255.014-.548.269-.654.255-.103.548.014.654.27l5 12c.07.169.043.362-.071.505l-4 5c-.099.122-.244.187-.391.187z" fill="#fff4f4" data-original="#000000" style="" class=""/></g></svg>
